HIERARCHY
ROOT Hips
{
  OFFSET -125.086 92.215 135.881
  CHANNELS 6 Xposition Yposition Zposition Zrotation Xrotation Yrotation
  JOINT LeftUpLeg
  {
    OFFSET 8.64259 1.95398 -2.38835
    CHANNELS 3 Zrotation Xrotation Yrotation
    JOINT LeftLeg
    {
      OFFSET 43.7702 0 0
      CHANNELS 3 Zrotation Xrotation Yrotation
      JOINT LeftFoot
      {
        OFFSET 40.6238 0 0
        CHANNELS 3 Zrotation Xrotation Yrotation
        JOINT LeftToeBase
        {
          OFFSET 12.7242 0 0
          CHANNELS 3 Zrotation Xrotation Yrotation
          End Site
          {
            OFFSET 0 0 0
          }
        }
      }
    }
  }
  JOINT RightUpLeg
  {
    OFFSET -8.2249 1.95398 -2.59336
    CHANNELS 3 Zrotation Xrotation Yrotation
    JOINT RightLeg
    {
      OFFSET 43.5653 0 0
      CHANNELS 3 Zrotation Xrotation Yrotation
      JOINT RightFoot
      {
        OFFSET 40.6238 0 0
        CHANNELS 3 Zrotation Xrotation Yrotation
        JOINT RightToeBase
        {
          OFFSET 12.7242 0 0
          CHANNELS 3 Zrotation Xrotation Yrotation
          End Site
          {
            OFFSET 0 0 0
          }
        }
      }
    }
  }
  JOINT Spine
  {
    OFFSET 0.165834 0.87714 6.61349
    CHANNELS 3 Zrotation Xrotation Yrotation
    JOINT Spine1
    {
      OFFSET 7.38963 1.71661e-005 0
      CHANNELS 3 Zrotation Xrotation Yrotation
      JOINT Spine2
      {
        OFFSET 11.9445 1.14441e-005 0
        CHANNELS 3 Zrotation Xrotation Yrotation
        JOINT Spine3
        {
          OFFSET 14.7254 4.19617e-005 0
          CHANNELS 3 Zrotation Xrotation Yrotation
          JOINT Spine4
          {
            OFFSET 10.9679 0 0
            CHANNELS 3 Zrotation Xrotation Yrotation
            JOINT RightShoulder
            {
              OFFSET 2.46616 -1.6653 3.69651
              CHANNELS 3 Zrotation Xrotation Yrotation
              JOINT RightArm
              {
                OFFSET 13.0012 0 0
                CHANNELS 3 Zrotation Xrotation Yrotation
                JOINT RightForeArm
                {
                  OFFSET 28.7848 1.52588e-005 0
                  CHANNELS 3 Zrotation Xrotation Yrotation
                  JOINT RightHand
                  {
                    OFFSET 26.5688 1.52588e-005 0
                    CHANNELS 3 Zrotation Xrotation Yrotation
                    End Site
                    {
                      OFFSET 0 0 0
                    }
                  }
                }
              }
            }
            JOINT LeftShoulder
            {
              OFFSET 2.38034 -1.29275 -3.7523
              CHANNELS 3 Zrotation Xrotation Yrotation
              JOINT LeftArm
              {
                OFFSET 16.3182 6.10352e-005 0
                CHANNELS 3 Zrotation Xrotation Yrotation
                JOINT LeftForeArm
                {
                  OFFSET 27.0901 0 0
                  CHANNELS 3 Zrotation Xrotation Yrotation
                  JOINT LeftHand
                  {
                    OFFSET 24.5451 1.52588e-005 0
                    CHANNELS 3 Zrotation Xrotation Yrotation
                    End Site
                    {
                      OFFSET 0 0 0
                    }
                  }
                }
              }
            }
            JOINT Neck
            {
              OFFSET 5.0226 -0.0266342 0
              CHANNELS 3 Zrotation Xrotation Yrotation
              JOINT Head
              {
                OFFSET 6.69363 2.86102e-005 0
                CHANNELS 3 Zrotation Xrotation Yrotation
                End Site
                {
                  OFFSET 0 0 0
                }
              }
            }
          }
        }
      }
    }
  }
}
MOTION
Frames:	12
Frame Time:	0.0416667
35.1553 90.208 -82.7416 -4.21809 75.2372 -158.014 -179.276 -3.16459 91.0256 -35.8414 26.0805 9.61481 42.4654 -6.33798 2.13514 46.6868 -1.57425 -0.161668 177.496 55.1853 90.5915 -57.0999 -10.939 -0.358019 55.1829 2.15579 18.9745 71.2499 -7.24447 -1.7141 -1.1644 9.53919 -91.4928 7.7557 -2.97502 -2.79047 -3.91449 -3.0949 -2.65686 -26.4405 -1.99937 -3.55498 -6.42785 -1.99936 -3.55499 109.306 -51.0626 -71.1924 25.7984 -8.47663 27.8417 -3.33942 -23.2175 -30.8322 -4.68314 -0.119269 -2.71841 -79.7678 -39.6275 93.53 -8.9103 -9.98971 -40.8563 10.0674 3.36634 -74.5713 14.9926 -1.28614 -12.4868 11.4762 2.40826 -27.5605 -8.54129 7.4056 39.7396 
36.8997 90.431 -103.208 -0.229501 79.0186 -164.755 178.609 2.84094 85.6612 -72.2896 8.13816 5.84042 47.3828 -1.98234 7.12691 25.8926 0.0642442 1.30311 171.489 46.853 92.1478 -36.4077 -11.6471 5.15469 46.7333 5.4982 23.0155 88.0093 -9.58514 0.120208 -0.947392 9.83621 -91.5308 7.15976 -2.55078 -2.90345 -4.51168 -2.67604 -2.78844 -27.0299 -1.56088 -3.5352 -7.0172 -1.56087 -3.53521 110.467 -53.6441 -69.8061 23.2757 -6.80513 16.9047 2.71721 -10.8484 -27.0185 -6.93401 -0.133158 -3.17519 -78.0375 -43.2983 96.5397 -11.3999 -3.92789 -29.9113 11.0691 6.37122 -68.5443 14.1822 -1.06768 -11.0792 15.9647 1.83233 -25.2033 -12.1116 6.14273 37.4326 
38.9014 87.7594 -122.863 10.1944 84.7775 -171.734 -179.407 23.5119 89.352 -116.457 7.10115 3.61886 47.9939 0.981173 12.1581 32.0417 -0.190707 -0.83464 168.601 34.7934 97.341 -50.3921 -11.0875 7.19313 60.9168 0.630789 16.8894 54.8406 -3.62094 2.71214 -0.298512 10.2967 -92.086 6.23421 -1.47778 -4.0516 -5.442 -1.65452 -3.9828 -27.9268 -0.193077 -4.30796 -7.91411 -0.193084 -4.30796 113.815 -56.5734 -65.4441 16.6913 -6.02251 -7.47175 6.39223 -2.44338 -26.1746 -7.25363 -0.0388632 -4.8766 -76.997 -48.0338 98.1878 -18.5324 -0.00165887 -21.6906 11.2258 32.3413 -34.8867 5.72406 -0.736042 -13.3046 19.1777 1.17339 -25.3492 -13.9105 5.61787 39.1759 
40.1161 86.4221 -143.511 57.7824 82.2576 142.693 176.315 52.8037 95.7996 -123.932 7.41167 3.62416 52.0767 3.80369 12.6193 39.956 -0.978825 1.50999 175.54 21.8074 98.6951 -52.9916 -16.987 3.08822 74.8987 -6.32166 8.78046 58.6613 -4.31342 2.25162 0.369079 9.85427 -91.953 7.13661 -0.101606 -3.84539 -4.5402 -0.270607 -3.83721 -27.0306 1.0579 -3.69861 -7.01792 1.0579 -3.69861 111.865 -54.8791 -67.9441 17.1933 -6.13078 -26.4985 0.595658 -6.38239 -41.0334 -5.67392 -0.0775214 -4.05112 -76.1749 -49.4793 99.4267 -24.1862 -9.72006 -4.9479 0.0605785 65.3896 -6.85292 4.40011 -0.614892 -13.3664 19.3468 0.93541 -30.2487 -14.483 6.24908 44.6906 
40.0073 89.7796 -166.428 49.8247 79.0567 140.933 -179.779 63.3951 89.5349 -88.7634 6.68801 2.8831 53.7897 2.73638 10.259 45.1609 -1.31207 3.17821 175.244 -0.131024 89.8522 -30.6796 -14.3541 -2.04025 60.8456 1.51831 23.3292 71.3434 -5.03719 6.12347 0.81821 8.79011 -90.5653 9.32882 1.37748 -1.2446 -2.34174 1.32135 -1.30402 -24.8834 1.68797 -0.773013 -4.87073 1.68797 -0.773018 111.071 -51.5033 -68.5604 14.0685 -13.3092 -25.9641 -1.48528 0.0544699 -69.138 -5.06615 0.0531774 -7.09969 -77.9691 -46.3566 96.6516 -21.4336 -15.8091 11.037 -5.46225 76.8562 0.906534 3.27988 -0.595329 -14.5469 18.4421 -0.529084 -17.0894 -15.9806 1.96887 25.1275 
38.8884 93.2661 -190.631 28.1993 82.5406 160.05 176.819 50.4133 90.6151 -38.9178 8.15177 1.86541 49.7226 -1.12323 8.44253 42.2641 -1.14848 0.358403 173.366 -13.0318 84.8332 -31.5279 -17.2322 -3.54527 41.4221 6.55562 19.2253 50.1513 -3.77958 -4.8632 1.0019 8.46633 -90.2862 9.94767 1.86682 -0.720436 -1.72218 1.83331 -0.801933 -24.268 1.997 -0.125871 -4.25534 1.997 -0.125868 111.807 -50.1816 -67.203 11.9193 -19.7146 -19.2438 -6.7662 2.36273 -81.7695 -5.08924 0.195056 -10.789 -79.7615 -43.8326 93.7178 -22.567 -14.2039 10.27 -5.53724 74.8834 -0.0210199 3.59818 -0.647805 -15.0251 13.7775 -1.76477 -9.24994 -15.6063 -0.782591 14.001 
39.0217 92.1775 -212.605 56.5739 88.962 130.813 -174.924 37.1974 87.4576 -26.5999 10.9255 -2.46478 46.2373 -4.63011 6.76911 51.2448 -1.26513 4.12002 177.842 -6.69869 90.1185 -85.341 -19.1234 -5.59599 34.9667 8.67386 17.2309 39.1192 -1.58259 3.04627 0.685565 8.93723 -90.096 9.00003 1.32452 -0.281217 -2.67042 1.31086 -0.339249 -25.2098 1.34778 0.129903 -5.19714 1.34778 0.129909 111.592 -51.9342 -67.8493 12.4601 -24.7456 -13.0291 -9.46313 -0.813237 -73.9863 -5.10787 0.0563707 -7.20023 -77.5847 -46.6145 97.2725 -24.7791 -13.4502 -4.42963 -3.35476 71.2444 0.0325365 6.31091 -0.782147 -13.4302 13.5559 -0.755931 -8.73864 -17.2514 0.190067 11.2221 
38.7022 87.6146 -233.713 -116.35 81.4266 -62.3759 -172.004 29.6577 77.9365 -51.9127 15.1549 -3.68264 65.6354 11.8069 23.9758 34.1415 -0.368922 -1.69969 -178.935 13.4015 81.9495 -128.866 -22.3878 -3.30317 32.1101 10.9578 14.5931 32.6059 -0.322296 -2.73118 -0.328484 9.44971 -89.4271 7.98094 -0.404998 1.15661 -3.69023 -0.353695 1.1733 -26.2244 -0.733875 0.981437 -6.21177 -0.733881 0.981434 114.257 -55.287 -64.5516 16.9914 -19.0212 -5.65074 -7.34011 -10.2392 -54.1578 -8.95699 -0.0978902 -4.41137 -76.454 -47.4335 99.0447 -25.4643 -6.14387 -26.1308 -6.56881 57.9846 1.70649 8.77379 -0.8963 -12.3889 22.2665 -0.031389 -7.7571 -23.8718 1.68887 5.14282 
37.6727 86.3729 -255.914 -109.457 74.0352 -71.1526 -175.786 14.0818 78.5135 -58.205 21.4439 -0.0227871 71.8975 19.5147 30.947 50.3238 -1.37124 5.83776 -175.766 41.9773 81.8459 -126.923 -22.2183 -3.74922 38.9363 7.78535 8.2546 43.9035 -2.4622 -4.4147 -1.18769 9.35939 -89.3845 8.16494 -2.10018 1.33659 -3.50526 -2.03934 1.42774 -26.0513 -2.40476 0.643387 -6.03861 -2.40476 0.643385 114.465 -55.3141 -64.2572 20.5083 -5.26034 -0.271699 -9.88548 -32.7375 -31.7543 -5.38232 -0.152778 -2.15089 -76.8507 -47.5787 98.4209 -23.5472 -0.1841 -40.998 7.58341 40.003 -20.0449 4.35332 -0.886337 -17.2767 21.4082 -0.34827 -3.89852 -24.5663 0.789035 0.860525 
34.7819 91.5128 -279.806 -106.64 68.15 -68.6747 -179.133 -4.17446 86.0958 -52.6001 19.6757 7.72307 62.381 5.92745 12.3991 63.926 -1.37649 8.39809 175.656 43.4404 85.5515 -80.6072 -12.6091 -2.53884 47.09 3.80814 12.0621 52.7396 -4.49498 -6.52086 -1.51248 8.85509 -90.2121 9.16292 -3.1114 -0.198234 -2.5043 -3.1171 -0.0609732 -25.0664 -2.90786 -1.12495 -5.05371 -2.90786 -1.12496 114.714 -54.11 -63.6356 17.1583 -1.38661 10.7594 -9.0878 -49.0752 -23.6178 -1.91339 -0.0624175 -2.00121 -76.9931 -45.596 98.2275 -14.226 5.85743 -43.1972 10.6664 22.3705 -43.5377 -6.23842 0.886972 -32.739 6.9114 -3.0738 -1.59187 -10.0998 -2.72249 0.310776 
32.553 89.66 -302.202 -106.01 68.4011 -69.5405 -179.658 -14.4442 91.882 -46.4344 10.9479 5.80288 37.4491 -6.60281 -10.0355 118.201 -8.12127 1.74811 177.917 35.1393 83.1344 -25.5358 4.61235 -0.749235 37.2269 5.13546 27.3666 42.4922 -3.81993 17.3582 -1.4452 8.19099 -90.1857 10.4947 -2.96398 -0.115084 -1.17286 -2.96617 0.0155843 -23.7329 -2.79223 -1.00125 -3.72024 -2.79224 -1.00124 113.062 -51.4564 -65.5267 15.8599 2.86832 22.821 -6.88995 -49.1583 -18.6509 0.349123 -0.00915122 -2.33004 -75.7027 -41.5619 100.461 2.03929 5.75145 -35.4225 44.0936 11.5437 -76.8799 -16.5627 -2.9189 -53.5873 14.7994 -2.28976 7.4407 -20.9236 -1.99813 -14.7383 
32.1567 75.4796 -323.233 -89.2986 63.6847 -91.0079 172.506 -19.4331 91.3828 -51.8378 12.435 3.76113 36.3335 -5.11661 -17.001 137.57 -28.9597 -16.3507 -176.43 44.8682 70.7443 2.06739 55.9154 -6.43955 12.8671 -0.491356 48.3094 4.21011 -12.9384 53.9584 -1.63903 6.85926 -89.9464 13.1672 -3.22731 0.513525 1.5001 -3.20158 0.655201 -21.0668 -3.23228 -0.481198 -1.05413 -3.23229 -0.481203 108.534 -42.7775 -71.2188 18.3769 8.23682 35.4028 -12.0886 -47.2152 -21.6492 4.25192 0.0742394 -2.93401 -75.2657 -43.2852 101.15 15.0438 -12.6495 -19.6268 127.208 -23.8317 -101.037 -1.94555 3.32396 -89.5111 27.494 10.5854 34.8709 -32.7697 15.0769 -61.5205 
